<svg xmlns="http://www.w3.org/2000/svg" viewBox="0 0 768 1280" preserveAspectRatio="xMidYMid slice"><defs>
      <linearGradient id="sky2" x1="0" y1="0" x2="0" y2="1">
        <stop offset="0" stop-color="#0d130c"/><stop offset="55%" stop-color="#0b0e0b"/>
        <stop offset="100%" stop-color="#0f160d"/></linearGradient>
      <radialGradient id="haze" cx="50%" cy="12%" r="55%">
        <stop offset="0" stop-color="#3f7a45" stop-opacity="0.22"/>
        <stop offset="100%" stop-color="#3f7a45" stop-opacity="0"/></radialGradient>
      <linearGradient id="fog2" x1="0" y1="0" x2="0" y2="1">
        <stop offset="0" stop-color="#10180e" stop-opacity="0"/>
        <stop offset="100%" stop-color="#0c120b" stop-opacity="0.92"/></linearGradient>
      <radialGradient id="horizon2" cx="50%" cy="92%" r="70%">
        <stop offset="0" stop-color="#2c4a2a" stop-opacity="0.4"/>
        <stop offset="100%" stop-color="#1a2a18" stop-opacity="0"/></radialGradient></defs><rect width="768" height="1280" fill="url(#sky2)"/><rect width="768" height="1280" fill="url(#haze)"/><rect y="720" width="768" height="560" fill="url(#horizon2)"/><polygon points="220,0 290,0 120,1280 40,1280" fill="#9be38b" opacity="0.05"/><polygon points="370,0 440,0 270,1280 190,1280" fill="#9be38b" opacity="0.05"/><polygon points="520,0 590,0 420,1280 340,1280" fill="#9be38b" opacity="0.05"/><g transform="translate(-180,120) scale(1.0156)" fill="#040504" opacity="1"><path d="M290.78 9.563l-19.5 72.53 70.033 26.813-39.282 40.813c-15.52 8.456-27.103 8.22-37.31 2.124-.014-.008-.02-.024-.033-.03l-5.093-11.064 41.844-33.5-49.375 17.22-29.875-64.626 14.406-31.375-31.656 22.56V51l-91.344-20.094 90.75 37.844 11.53 24.938-62.25 13.25-33.31-41.626 15.78 45.344-26.156 5.563L50.25 77.843l26.344 30.062-39.906 31.938 52.03-18.125 13.907 15.843 80.563-16.938-3.22 43.75 20.782-47.438 23.656-4.968 23.406 50.624c1.88 9.953 2.716 19.126 2.282 27.125l-45.188-17.657 41.188 35.562c-6.098 12.943-19.27 18.24-41.344 11.594l-75.344-49.97-27.97 18.53-16.405-37.343 3.376 46-9.53 6.313-65.157-49.344 61.5 74.938 54.186-35.938c10.9 7.49 21.867 14.905 32.844 22.28l-12.125 41.72-48.75 20.22 63.97-3.782 13.593-47.03c5.696 3.787 11.38 7.58 17.093 11.342 49.537 75.88 57.073 189.32 1.97 176.688 9.086 38.633-24.273 67.905-54.844 81.062h28.03l-.03-.062c25.217-7.956 40.217-20.772 55.906-45.813.113 17.364-7.4 33.346-20.875 45.876h66c-17.686-16.632-27.36-43.79-15.062-88.53 2.454 40.996 14.77 72.124 53.156 88.5v.03h25.97c-69.106-37.694-84.94-111.418-50.094-182.53l36.28-43.47 62.158 17.25-38.188-24.28 18.156-45.72-32.156 36.813-14.22-9.064-13.842 16.53c-7.277-7.843-9.635-21.475-7.78-38.405 2.074-18.954 9.395-40.43 17.123-56.25l15.938-16.405 41.53 25.97 13.408 57.28 79.75 21.938L401 219.22l-10.438-45.782 26.97-12.594L461.187 209l-26.72-56.063 9.813-4.593 50.47-2.875-34.656-13 19.437-52.19-40.374 49.845-59.406 27.72-36.28-22.72 24.124-24.844 42.437-33.968-52.31 18.22-5.408-2.094L392.75 13.31l-58.063 72.313-43.906-16.938V9.563zm-13.5 224.687c.254 15.565 4.228 30.356 15 40.594l-12.186 14.562c-9.453-13.425-9.047-33.08-2.813-55.156zm-53.78 14.28c26.69 17.688 39.887 60.23 23.75 88.595-3.706-24.886-12.738-58.882-25.688-85.188l1.938-3.406z"/></g><g transform="translate(-40,360) scale(0.7031)" fill="#0a0d09" opacity="0.8"><path d="M249.28 19.188v.25c-18.114 38.634-45.065 72.36-77.686 102.937l37.72-3.938-51.345 65.032 24.81-7.907-33.624 54.875 16.53 9.843-65.25 92.157 36.095.188-51.686 83.594 63.562-8.126 12 32.094 66.438-25.282L215.5 493.28h52.938l-6.532-68.217 38.188 16.406 10.187-24.783 44.283 20.97 56.406-20.75-37.064-64.094-12.437-2.282 6.78 17.19 7.844 19.905-19.938-7.78-50.906-19.908V395.688l-14.156-8.594-69.375-42-21.595 21.25-18.03 17.75 2.155-25.22 2.125-24.655 18.188 1.56 9.218-9.092 5.19-5.094 6.218 3.75 61.375 37.156v-29.906l12.75 4.97 43.718 17.092-5.092-12.906-6.157-15.656 16.533 3.03 45.468 8.345-34.53-38.94-23.625 14.033-6.688 3.968-5.125-5.874-14.28-16.437.218 1.217-18.406 3.22-5.97-34.313-5.75-33.063 22 25.345 31.188 35.875 43.907-26.03c-24.67-19.543-39.507-33.87-49.658-48.814l.813 12.656 1.97 31-18.75-24.75-34.47-45.437-22.25 46.813-13.844 29.125-3.843-32.032-3.5-28.843 16.532-1.968 16.624-34.97 6.594-13.875 9.28 12.22 25 32.936-.75-11.53-.906-14.28 13.47 4.936L341.81 188l-26.125-35.156-55.843-28.875-8.938 20.218-9.656 21.937-7.72-22.688-7.468-21.875 16.97-5.78 3.718-8.438 4-9.125 8.844 4.593 49.375 25.53 16.467-5.562c-43.42-34.31-64.63-68.886-76.156-103.593z"/></g><g transform="translate(-120,520) scale(0.8203)" fill="#040504" opacity="1"><path d="M348.92 15.633c-1.387-.018-2.776.02-4.168.113l-.002.006c-13.368.9-26.782 7.143-39.715 19.27-20.056-5.876-37.08-10.614-57.232-.58-37.81-11.887-75.686-13.068-104.54 19.27-42.477-10.09-87.2 9.883-76.51 58.985-47.074 14.955-56.408 78.2-.58 73.586 7.938 46.78 41.118 55.937 83.514 40.883 19.41 24.008 46.462 39.182 77.282 46.443.28 5.105.085 10.33-.566 15.68-5.807 47.77-50.79 105.31-121.367 154.696L81.12 460.723l29.16-1.354c29.003-1.347 48.05-2.39 58.935-1.55-5.818 6.555-11.317 12.37-16.28 17.297L134.04 493.88l26.26-4.417c23.887-4.017 44.442-7.94 59.927-8.363 15.484-.423 24.434 2.174 29.916 9.552l7.33 9.864 6.597-10.368c6.53-10.26 13.576-12.87 27.227-12.257 13.65.613 32.84 6.013 57.043 13.3l29.69 8.94-21.036-22.782c-8.04-8.707-15.965-18.118-23.357-27.786 2.535.115 5.228.297 8.015.596 12.14 1.3 26.887 3.978 40.67 8.067l26.127 7.75-17.145-21.184c-32.25-39.843-64.6-69.885-69.768-104.74-2.584-17.43.916-36.76 15.28-61.374 1.952-3.342 4.124-6.783 6.49-10.31 7.932-2.277 15.826-4.915 23.634-7.913 27.094 24.058 78.02 4.07 50.812-27.45 58.72-14.457 105.89-59.625 26.865-95.196 46.613-36.08 17.39-90.36-40.297-88.188-14.636-21.026-34.603-33.72-55.4-33.987zm11.277 65.488c-42.59 32.678-48.978 37.184-53.506 65.825.317 3.472.597 7.013 1.103 10.11 3.153 19.296 10.22 32.648 21.43 39.89 11.21 7.243 24.752 7.554 38.814 5.344 3.876-.61 7.86-1.446 11.91-2.397-26.82 26.337-45.555 49.373-57.742 70.253-15.75 26.986-20.6 50.827-17.404 72.385 5.283 35.632 30.606 63.305 56.864 93.556-6.317-1.147-12.557-2.146-18.21-2.752-8.907-.955-16.085-1.496-22.225-1.018-15.78-23.394-27.137-46.75-28.396-64.013l-16.875 1.23c2.246 30.812 24.037 66.155 49.786 97.565-12.35-3.28-23.554-5.657-33.69-6.112-13.696-.614-26.363 3.152-35.763 12.244-9.7-7.222-22.628-9.424-36.527-9.044-11.164.304-23.902 2.172-37.366 4.402 44.064-49.242 105.015-137.42 104.04-226.442l-16.92.186c.81 73.714-47.797 152.037-88.25 201.336-11.867-3.388-25.73-3.414-44.05-2.566 60.184-46.96 99.88-99.595 105.98-149.77 3.418-28.11-4.46-55.45-25.085-78.033-16.147-17.684-39.853-32.51-71.576-44.105 7.55-1.88 14.953-4.365 21.462-9.18 6.738-4.988 11.306-13.447 12.117-23.892 4.84 5.99 9.412 10.25 15.808 12.004 3.987 1.093 8.89.41 12.398-1.818 1.18-.75 2.055-1.72 2.987-2.65 1.008 13.36 2.204 26.116 4.996 35.543 1.305 4.41 2.77 8.54 6.917 11.938 4.147 3.4 11.522 3.424 16.02.846 2.954-1.693 5.624-4.19 8.255-7.105.53 5.72 1.776 10.502 4.068 14.624 1.406 2.527 3.53 5.005 6.594 6.473 3.065 1.467 6.72 1.527 9.586.712 5.732-1.63 9.41-5.37 13.29-10.104 8.362-10.204 17.167-27.234 25.41-49.5-1.647-26.645-3.49-39.06-35.522-58.758 25.123 13.013 47.678 20.495 89.27-7.207z"/></g><g transform="translate(428,120) scale(1.0156)" fill="#040504" opacity="1"><path d="M290.78 9.563l-19.5 72.53 70.033 26.813-39.282 40.813c-15.52 8.456-27.103 8.22-37.31 2.124-.014-.008-.02-.024-.033-.03l-5.093-11.064 41.844-33.5-49.375 17.22-29.875-64.626 14.406-31.375-31.656 22.56V51l-91.344-20.094 90.75 37.844 11.53 24.938-62.25 13.25-33.31-41.626 15.78 45.344-26.156 5.563L50.25 77.843l26.344 30.062-39.906 31.938 52.03-18.125 13.907 15.843 80.563-16.938-3.22 43.75 20.782-47.438 23.656-4.968 23.406 50.624c1.88 9.953 2.716 19.126 2.282 27.125l-45.188-17.657 41.188 35.562c-6.098 12.943-19.27 18.24-41.344 11.594l-75.344-49.97-27.97 18.53-16.405-37.343 3.376 46-9.53 6.313-65.157-49.344 61.5 74.938 54.186-35.938c10.9 7.49 21.867 14.905 32.844 22.28l-12.125 41.72-48.75 20.22 63.97-3.782 13.593-47.03c5.696 3.787 11.38 7.58 17.093 11.342 49.537 75.88 57.073 189.32 1.97 176.688 9.086 38.633-24.273 67.905-54.844 81.062h28.03l-.03-.062c25.217-7.956 40.217-20.772 55.906-45.813.113 17.364-7.4 33.346-20.875 45.876h66c-17.686-16.632-27.36-43.79-15.062-88.53 2.454 40.996 14.77 72.124 53.156 88.5v.03h25.97c-69.106-37.694-84.94-111.418-50.094-182.53l36.28-43.47 62.158 17.25-38.188-24.28 18.156-45.72-32.156 36.813-14.22-9.064-13.842 16.53c-7.277-7.843-9.635-21.475-7.78-38.405 2.074-18.954 9.395-40.43 17.123-56.25l15.938-16.405 41.53 25.97 13.408 57.28 79.75 21.938L401 219.22l-10.438-45.782 26.97-12.594L461.187 209l-26.72-56.063 9.813-4.593 50.47-2.875-34.656-13 19.437-52.19-40.374 49.845-59.406 27.72-36.28-22.72 24.124-24.844 42.437-33.968-52.31 18.22-5.408-2.094L392.75 13.31l-58.063 72.313-43.906-16.938V9.563zm-13.5 224.687c.254 15.565 4.228 30.356 15 40.594l-12.186 14.562c-9.453-13.425-9.047-33.08-2.813-55.156zm-53.78 14.28c26.69 17.688 39.887 60.23 23.75 88.595-3.706-24.886-12.738-58.882-25.688-85.188l1.938-3.406z"/></g><g transform="translate(448,360) scale(0.7031)" fill="#0a0d09" opacity="0.8"><path d="M249.28 19.188v.25c-18.114 38.634-45.065 72.36-77.686 102.937l37.72-3.938-51.345 65.032 24.81-7.907-33.624 54.875 16.53 9.843-65.25 92.157 36.095.188-51.686 83.594 63.562-8.126 12 32.094 66.438-25.282L215.5 493.28h52.938l-6.532-68.217 38.188 16.406 10.187-24.783 44.283 20.97 56.406-20.75-37.064-64.094-12.437-2.282 6.78 17.19 7.844 19.905-19.938-7.78-50.906-19.908V395.688l-14.156-8.594-69.375-42-21.595 21.25-18.03 17.75 2.155-25.22 2.125-24.655 18.188 1.56 9.218-9.092 5.19-5.094 6.218 3.75 61.375 37.156v-29.906l12.75 4.97 43.718 17.092-5.092-12.906-6.157-15.656 16.533 3.03 45.468 8.345-34.53-38.94-23.625 14.033-6.688 3.968-5.125-5.874-14.28-16.437.218 1.217-18.406 3.22-5.97-34.313-5.75-33.063 22 25.345 31.188 35.875 43.907-26.03c-24.67-19.543-39.507-33.87-49.658-48.814l.813 12.656 1.97 31-18.75-24.75-34.47-45.437-22.25 46.813-13.844 29.125-3.843-32.032-3.5-28.843 16.532-1.968 16.624-34.97 6.594-13.875 9.28 12.22 25 32.936-.75-11.53-.906-14.28 13.47 4.936L341.81 188l-26.125-35.156-55.843-28.875-8.938 20.218-9.656 21.937-7.72-22.688-7.468-21.875 16.97-5.78 3.718-8.438 4-9.125 8.844 4.593 49.375 25.53 16.467-5.562c-43.42-34.31-64.63-68.886-76.156-103.593z"/></g><g transform="translate(468,520) scale(0.8203)" fill="#040504" opacity="1"><path d="M348.92 15.633c-1.387-.018-2.776.02-4.168.113l-.002.006c-13.368.9-26.782 7.143-39.715 19.27-20.056-5.876-37.08-10.614-57.232-.58-37.81-11.887-75.686-13.068-104.54 19.27-42.477-10.09-87.2 9.883-76.51 58.985-47.074 14.955-56.408 78.2-.58 73.586 7.938 46.78 41.118 55.937 83.514 40.883 19.41 24.008 46.462 39.182 77.282 46.443.28 5.105.085 10.33-.566 15.68-5.807 47.77-50.79 105.31-121.367 154.696L81.12 460.723l29.16-1.354c29.003-1.347 48.05-2.39 58.935-1.55-5.818 6.555-11.317 12.37-16.28 17.297L134.04 493.88l26.26-4.417c23.887-4.017 44.442-7.94 59.927-8.363 15.484-.423 24.434 2.174 29.916 9.552l7.33 9.864 6.597-10.368c6.53-10.26 13.576-12.87 27.227-12.257 13.65.613 32.84 6.013 57.043 13.3l29.69 8.94-21.036-22.782c-8.04-8.707-15.965-18.118-23.357-27.786 2.535.115 5.228.297 8.015.596 12.14 1.3 26.887 3.978 40.67 8.067l26.127 7.75-17.145-21.184c-32.25-39.843-64.6-69.885-69.768-104.74-2.584-17.43.916-36.76 15.28-61.374 1.952-3.342 4.124-6.783 6.49-10.31 7.932-2.277 15.826-4.915 23.634-7.913 27.094 24.058 78.02 4.07 50.812-27.45 58.72-14.457 105.89-59.625 26.865-95.196 46.613-36.08 17.39-90.36-40.297-88.188-14.636-21.026-34.603-33.72-55.4-33.987zm11.277 65.488c-42.59 32.678-48.978 37.184-53.506 65.825.317 3.472.597 7.013 1.103 10.11 3.153 19.296 10.22 32.648 21.43 39.89 11.21 7.243 24.752 7.554 38.814 5.344 3.876-.61 7.86-1.446 11.91-2.397-26.82 26.337-45.555 49.373-57.742 70.253-15.75 26.986-20.6 50.827-17.404 72.385 5.283 35.632 30.606 63.305 56.864 93.556-6.317-1.147-12.557-2.146-18.21-2.752-8.907-.955-16.085-1.496-22.225-1.018-15.78-23.394-27.137-46.75-28.396-64.013l-16.875 1.23c2.246 30.812 24.037 66.155 49.786 97.565-12.35-3.28-23.554-5.657-33.69-6.112-13.696-.614-26.363 3.152-35.763 12.244-9.7-7.222-22.628-9.424-36.527-9.044-11.164.304-23.902 2.172-37.366 4.402 44.064-49.242 105.015-137.42 104.04-226.442l-16.92.186c.81 73.714-47.797 152.037-88.25 201.336-11.867-3.388-25.73-3.414-44.05-2.566 60.184-46.96 99.88-99.595 105.98-149.77 3.418-28.11-4.46-55.45-25.085-78.033-16.147-17.684-39.853-32.51-71.576-44.105 7.55-1.88 14.953-4.365 21.462-9.18 6.738-4.988 11.306-13.447 12.117-23.892 4.84 5.99 9.412 10.25 15.808 12.004 3.987 1.093 8.89.41 12.398-1.818 1.18-.75 2.055-1.72 2.987-2.65 1.008 13.36 2.204 26.116 4.996 35.543 1.305 4.41 2.77 8.54 6.917 11.938 4.147 3.4 11.522 3.424 16.02.846 2.954-1.693 5.624-4.19 8.255-7.105.53 5.72 1.776 10.502 4.068 14.624 1.406 2.527 3.53 5.005 6.594 6.473 3.065 1.467 6.72 1.527 9.586.712 5.732-1.63 9.41-5.37 13.29-10.104 8.362-10.204 17.167-27.234 25.41-49.5-1.647-26.645-3.49-39.06-35.522-58.758 25.123 13.013 47.678 20.495 89.27-7.207z"/></g><g transform="translate(120,1060) scale(0.2930)" fill="#0a0d09" opacity="0.6"><path d="M253.75 18.906c-77.635.03-154.875 54.01-154.875 167.5v209.72c25.67 19.717 46.68 41.386 52.156 69.124-3.507-44.464-4.166-88.692 14.595-133.156 5.265 38.52 8.087 77.137 26.875 115.656 25.316-53.302 59.948-75.555 102.188-72.438-29.706 25.94-56.26 55.26-74.75 95.22 31.477-30.2 66.886-38.728 103.968-40.907-21.57 15.247-41.576 30.414-54.156 50.22h78.344c6.443-27.99-4.756-54.648-17.78-82.908 27.59 18.168 51.09 40.4 61.905 77.657 3.525-39-3.843-73.686-15.19-106.875 13.34 6.44 23.875 15.568 31.595 27.374V186.406c0-113.616-77.24-167.528-154.875-167.5zM150.156 144.594h114.938v18.687H150.156v-18.686zm152.438 0h56.125v18.687h-56.126v-18.686zm-152.438 42.75h36.5v18.687h-36.5v-18.686zm72.25 0H358.72v18.687H222.405v-18.686zm-72.28 40.312h95.81v18.688h-95.81v-18.688zm126.31 0h82.283v18.688h-82.283v-18.688zm-177.56 189.53v62.658h23.686c-4.638-21.58-13.086-42.375-23.687-62.656z"/></g><g transform="translate(508,1080) scale(0.2734)" fill="#0a0d09" opacity="0.6"><path d="M253.75 18.906c-77.635.03-154.875 54.01-154.875 167.5v209.72c25.67 19.717 46.68 41.386 52.156 69.124-3.507-44.464-4.166-88.692 14.595-133.156 5.265 38.52 8.087 77.137 26.875 115.656 25.316-53.302 59.948-75.555 102.188-72.438-29.706 25.94-56.26 55.26-74.75 95.22 31.477-30.2 66.886-38.728 103.968-40.907-21.57 15.247-41.576 30.414-54.156 50.22h78.344c6.443-27.99-4.756-54.648-17.78-82.908 27.59 18.168 51.09 40.4 61.905 77.657 3.525-39-3.843-73.686-15.19-106.875 13.34 6.44 23.875 15.568 31.595 27.374V186.406c0-113.616-77.24-167.528-154.875-167.5zM150.156 144.594h114.938v18.687H150.156v-18.686zm152.438 0h56.125v18.687h-56.126v-18.686zm-152.438 42.75h36.5v18.687h-36.5v-18.686zm72.25 0H358.72v18.687H222.405v-18.686zm-72.28 40.312h95.81v18.688h-95.81v-18.688zm126.31 0h82.283v18.688h-82.283v-18.688zm-177.56 189.53v62.658h23.686c-4.638-21.58-13.086-42.375-23.687-62.656z"/></g><rect y="820" width="768" height="460" fill="url(#fog2)"/></svg>